<?xml version="1.0" standalone="no"?>
<!DOCTYPE svg PUBLIC "-//W3C//DTD SVG 20010904//EN"
 "http://www.w3.org/TR/2001/REC-SVG-20010904/DTD/svg10.dtd">
<svg version="1.0" xmlns="http://www.w3.org/2000/svg"
 width="512.000000pt" height="512.000000pt" viewBox="0 0 512.000000 512.000000"
 preserveAspectRatio="xMidYMid meet">

<g transform="translate(0.000000,512.000000) scale(0.100000,-0.100000)"
fill="#000000" stroke="none">
<path d="M0 2560 l0 -2560 2560 0 2560 0 0 2560 0 2560 -2560 0 -2560 0 0
-2560z m3030 1538 c-1 -2 -33 -154 -73 -338 l-73 -335 268 -3 c147 -1 268 -4
268 -7 0 -20 -93 -432 -98 -437 -4 -4 -127 -9 -272 -10 l-265 -3 -117 -540
c-121 -556 -140 -675 -119 -753 25 -92 115 -152 225 -152 66 0 168 16 229 36
27 9 50 14 53 12 2 -3 -18 -107 -46 -232 -27 -125 -50 -229 -50 -231 0 -2 -44
-14 -97 -27 -130 -31 -388 -33 -498 -4 -218 57 -356 186 -411 386 -14 50 -18
100 -17 215 1 183 15 270 146 865 l93 425 -215 5 c-185 4 -216 7 -214 20 4 26
83 394 89 413 5 15 24 17 222 17 l217 0 49 230 c27 126 52 233 55 238 11 17
653 224 651 210z"/>
</g>
</svg>
